<svg width="182" height="240" viewBox="0 0 182 240" xmlns="http://www.w3.org/2000/svg"><title>Group 2</title><g fill="none" fill-rule="evenodd"><path d="M161.954 126.275l6.496-3.66c2.35-1.324 4.508-3.52 6.086-5.988 1.556-2.43 2.526-5.072 2.537-7.332l.16-47.49c.005-.864-.138-1.578-.402-2.136-.215-.454-.524-.795-.9-1.013-.044-.025-.09-.055-.132-.083L103.596 16.9c-.094-.04-.185-.092-.272-.147-.478-.227-1.093-.308-1.818-.226-.905.1-1.947.46-3.078 1.1L91.725 21.4v64.34l70.23 40.533zm8.692.26l-7.606 4.28c-.67.374-1.512.397-2.222-.016L88.492 89.054c-.75-.365-1.267-1.132-1.267-2.023V20.27h.006c0-.384.097-.772.303-1.127l.103-.18c.195-.372.497-.695.892-.916l7.702-4.338c1.662-.938 3.283-1.476 4.782-1.644 1.666-.19 3.192.08 4.483.765.053.025.103.054.154.083l.125.072-.002.005 72.22 41.68c.105.05.21.107.31.176l.05.034c1.082.67 1.946 1.637 2.535 2.878.538 1.135.83 2.5.824 4.063l-.16 47.494c-.016 3.127-1.254 6.616-3.24 9.72-1.958 3.065-4.673 5.813-7.666 7.5z" fill="#B3B4B4"/><path d="M98.133 62.448l.03-6.306 63.017 39.165 15.876-38.594-72.404-41.786-.125-.074c-1.777-.985-4.35-.79-7.197.814l-7.703 4.338-.153.262v30.09L80.762 82l7.604-4.284c5.347-3.01 9.74-9.88 9.767-15.27" fill="#FFF"/><path d="M106.61 67.502l.03-6.306.002-.503.423.267 54.023 21.227 15.578-25.374-72.11-41.62-.124-.07c-.85-.472-1.907-.656-3.1-.523-1.164.13-2.46.57-3.822 1.34l-7.634 4.298-.076.13v66.21l7.186-4.048c2.632-1.483 5.033-3.92 6.78-6.65 1.744-2.725 2.832-5.74 2.843-8.378zm.586-5.803l-.027 5.804c-.014 2.747-1.134 5.865-2.932 8.676-1.795 2.805-4.265 5.31-6.978 6.84L89.657 87.3l-.418.236V20.294l.037-.14.153-.262.105-.105 7.704-4.337c1.428-.807 2.795-1.266 4.033-1.405 1.124-.128 2.146.01 3.018.385v-.038l.42.243.13.074 72.357 41.76.25.146-.15.244-15.88 25.86-.147.24-.24-.147L107.197 61.7z" fill="#B3B4B4"/><path d="M23.843 127.153v48.142c0 1.336.21 2.452.58 3.316.31.723.72 1.243 1.198 1.526.054.03.106.06.155.096l72.5 41.754c.122.056.24.12.347.196.353.187.77.275 1.23.247.596-.04 1.272-.262 2.004-.688l50.498-29.313c1.946-1.134 3.77-3.295 5.12-5.862 1.366-2.59 2.22-5.545 2.22-8.252V130.15L89.17 89.446l-65.33 37.706zm-4.497 48.142V125.86h.004c0-.772.403-1.524 1.12-1.94l67.56-38.993c.675-.398 1.54-.432 2.267-.01l72.63 41.92c.75.363 1.266 1.132 1.266 2.022v49.457c0 3.44-1.056 7.135-2.745 10.342-1.726 3.272-4.155 6.084-6.843 7.652l-50.5 29.313c-1.352.787-2.695 1.203-3.97 1.282-1.448.093-2.79-.245-3.946-.953v-.002L23.587 184.14c-.13-.06-.253-.133-.37-.214-1.252-.782-2.253-1.986-2.925-3.542-.608-1.413-.947-3.13-.947-5.09z" fill="#B3B4B4"/><path d="M21.89 125.912v49.43c0 3.366 1.136 5.756 2.922 6.797l.01.005h.002L93.71 221.93c2.19 1.266 3.653 1.9 6.05 2.16l26.312-21.595c4.65-2.658 8.463-9.883 8.463-16.055v-41.42l-39.768 22.046-72.876-41.152" fill="#F6F6F6"/><path d="M21.983 126.072v49.16c0 1.614.264 2.99.74 4.095.483 1.124 1.185 1.96 2.043 2.46l.007.005.003.003.01.004h.004v.003l73.002 42.16.662-3.23.026-.124.11-.064 27.344-18.298c2.277-1.3 4.356-3.73 5.867-6.597 1.514-2.87 2.454-6.174 2.454-9.213v-40.934L94.906 167.64l-.14.08-.14-.08-72.643-41.568zm-.452 49.608l.024.277-.132-.724c0 1.69.28 3.144.785 4.314l-.196-1.082.206.82.386.735-.394-.472c.445 1.042 1.068 1.878 1.825 2.435.143.105.293.2.446.287l-.373-.446.05.013.32.433h.004l.017.01.66.38 72.69 41.98.337.195.08-.38.715-3.484 27.23-18.233c2.375-1.357 4.53-3.87 6.088-6.825 1.553-2.947 2.518-6.342 2.518-9.474v-41.905l-.417.244-39.633 22.3-72.924-41.73-.42-.245v50.13l.108.448z" fill="#B3B4B4"/><path d="M94.93 167.362v49.343c0 6.154 3.82 9.04 8.462 6.39l50.087-28.725c4.64-2.652 8.463-9.885 8.463-16.055V128.86L95.08 167.45l-.15-.088" fill="#FFF"/><path d="M95.134 167.742v49.007c0 1.947.39 3.555 1.07 4.743.435.762.987 1.352 1.63 1.747.638.396 1.37.6 2.173.6.972 0 2.045-.303 3.172-.947l50.16-28.767c2.275-1.3 4.355-3.73 5.865-6.6 1.514-2.87 2.457-6.174 2.457-9.212v-48.968l-66.517 38.39-.01.006zm-.563 49.006v-49.83l.422.243.013.01 66.797-38.554.42-.244v49.942c0 3.13-.967 6.524-2.52 9.47-1.56 2.96-3.715 5.474-6.084 6.828l-50.165 28.767c-1.214.694-2.382 1.023-3.448 1.023-.904 0-1.736-.237-2.466-.688-.727-.447-1.345-1.102-1.825-1.944-.725-1.272-1.144-2.973-1.144-5.022z" fill="#B3B4B4"/><path fill="#EBECEB" d="M89.042 86.783l72.9 42.076-67.002 38.496-72.75-41.99 66.852-38.583"/><path fill="#FFFFFE" d="M50.324 113.794l.007-4.317-28.203 16.198 72.78 41.966 66.902-38.536-8.77-5.567-59.755 34.377-52.86-26.313-10.84-5.504 20.74-12.302"/><path d="M89.232 86.57l72.85 42.046c.136.077.18.25.103.384-.027.043-.062.078-.103.1l-66.98 38.65c-.1.054-.213.047-.298-.013L21.726 125.76c-.134-.076-.18-.248-.103-.38.024-.046.06-.08.103-.104L88.95 86.57c.09-.054.197-.05.282 0zm72.148 42.287L89.09 87.135l-66.666 38.382 72.538 41.666 66.418-38.326z" fill="#B3B4B4"/><path d="M179.314 109.304l.16-47.49c.024-5.39-4.34-7.325-9.676-4.32l-7.702 4.338-.153.26v66.765l7.605-4.282c5.346-3.012 9.74-9.883 9.766-15.27" fill="#FFF"/><path d="M179.033 109.302l.162-47.49c.005-1.323-.26-2.425-.746-3.285-.396-.7-.938-1.242-1.598-1.605-.662-.37-1.448-.56-2.322-.565-1.353-.006-2.922.44-4.596 1.38l-7.906 4.45-.077.135.002 66.207 7.46-4.2c2.63-1.482 5.033-3.92 6.777-6.65 1.744-2.726 2.83-5.74 2.843-8.378zm.722-47.49l-.162 47.492c-.013 2.748-1.135 5.867-2.932 8.676-1.793 2.806-4.263 5.31-6.976 6.84l-7.873 4.434-.416.235V62.242l.036-.14.153-.26.105-.104 7.973-4.49c1.76-.99 3.423-1.456 4.874-1.45.967.005 1.846.22 2.592.634.748.414 1.365 1.027 1.814 1.82.528.94.82 2.135.815 3.56z" fill="#B3B4B4"/><path fill="#FFFFFE" d="M89.563 87.082V20.318l72.38 41.776v66.765L89.563 87.08"/><path d="M157.93 126.927l-4.878-2.807 4.877 2.807zm0 0v-62.85L92.38 26.114l.28 17.432 21.795 26.208 37.25 53.59 6.224 3.582z" fill="#EBECEB"/><path d="M157.93 126.927l-4.878-2.807 4.877 2.807zm0 0v-25.76l-29.803-17.2-.198 5.177 23.775 34.202 6.224 3.58z" fill="#E3E4E3"/><path d="M158.313 126.764l-.56-.323V64.077L92.642 26.36v62.52l-.56-.324v-62.68c0-.16.125-.283.28-.283.06 0 .113.018.158.048l65.654 38.03c.087.053.138.146.138.243v62.85" fill="#B3B4B4"/><path d="M89.132 86.996V20.232c0-.157.125-.282.28-.282.057 0 .11.018.157.05l72.243 41.852c.087.052.138.145.138.242h.002v66.765c0 .154-.126.28-.28.28-.058 0-.114-.017-.157-.05L89.272 87.24c-.092-.053-.14-.15-.14-.244zm.56-66.28v66.12l71.7 41.537V62.257l-71.7-41.54z" fill="#B3B4B4"/><path d="M141.883 71.07L73.98 31.527c-1.48-.86-2.836-.915-3.878-.31l-4.125 2.545.01.013c-1.51.563-2.5 2.354-2.5 5.008v34.544l51.57 45.808 32.752-.903V82.455c0-4.364-2.668-9.49-5.927-11.386" fill="#FFF"/><path d="M139.123 73.92l-68.06-39.54c-.427-.248-.803-.378-1.12-.404-.207-.017-.38.014-.513.09l-.05.028-3.834 2.362c-.083.064-.174.125-.27.178-.103.06-.208.106-.315.148h.002c-.222.083-.433.314-.61.672-.272.54-.425 1.293-.425 2.238v51.965l58.54 38.543 21.47-12.35V83.365c0-1.818-.57-3.82-1.49-5.58-.892-1.714-2.073-3.14-3.324-3.866zM73.317 30.496l68.058 39.54c2.018 1.17 3.81 3.257 5.07 5.675 1.235 2.365 2 5.108 2 7.655v35.776h-.005c0 .774-.403 1.524-1.122 1.94l-23.71 13.64c-.676.4-1.543.43-2.27.01L60.685 94.97c-.752-.365-1.268-1.132-1.268-2.022V39.693c0-1.658.324-3.094.898-4.242.638-1.273 1.58-2.204 2.745-2.73l3.963-2.437c.048-.037.1-.068.153-.1.932-.538 1.988-.78 3.12-.688.973.078 1.994.406 3.02 1z" fill="#B3B4B4"/><path d="M140.064 71.98L72.16 32.437c-1.48-.86-2.836-.917-3.877-.31L64.16 34.67l1.702 3.13V92.54c0 .57.047 1.156.134 1.746l58.018 39.572 21.977-12.683v-37.81c0-4.365-2.668-9.49-5.926-11.386" fill="#F6F6F6"/><path d="M140.454 72.22L72.076 32.68c-.69-.4-1.353-.616-1.96-.665-.615-.048-1.177.074-1.66.355l-3.92 2.4 1.59 2.896.035.135v59.24c0 .28.013.56.033.838.02.243.045.49.078.733l56.543 35.818 23.47-13.415V83.365c0-2.138-.66-4.463-1.722-6.49-1.058-2.018-2.513-3.734-4.106-4.654zM72.36 32.196l68.377 39.54c1.69.976 3.22 2.774 4.324 4.882 1.103 2.102 1.788 4.52 1.788 6.748v37.97l-.143.08-23.753 13.58-.14.078-.14-.08L65.868 99.03l-.118-.07-.02-.134c-.045-.3-.08-.607-.103-.908-.023-.298-.036-.593-.036-.878v-59.17l-1.68-3.062-.127-.23.228-.142 4.152-2.546.007-.003c.584-.336 1.256-.485 1.987-.43.69.057 1.43.297 2.2.74z" fill="#B3B4B4"/><path d="M135.498 74.75l-67.9-39.54c-3.263-1.9-5.93.12-5.93 4.483v64.5l51.57 29.82 15.814-3.064 12.375-7.143V86.135c0-4.366-2.667-9.49-5.93-11.386" fill="#FFF"/><path d="M135.618 74.99l-68.14-39.54c-.792-.458-1.54-.675-2.215-.675-.535 0-1.024.136-1.448.395-.432.263-.804.654-1.098 1.158-.487.832-.766 1.97-.766 3.367v66.113l64.657 35.43 14.82-17.59V86.135c0-2.136-.658-4.463-1.717-6.49-1.055-2.02-2.503-3.733-4.092-4.655zM67.76 34.965l68.14 39.54c1.683.978 3.21 2.775 4.31 4.88 1.098 2.103 1.78 4.52 1.78 6.748v37.835l-.142.08-15.104 17.757-.137.078-.14-.078-64.94-35.592-.14-.082V39.694c0-1.495.306-2.73.842-3.646.343-.586.78-1.045 1.292-1.356.515-.313 1.102-.48 1.74-.48.772.003 1.616.244 2.498.755z" fill="#B3B4B4"/><path d="M103.36 126.58l22.817 13v2.458l-22.816-13v-2.457zm-1.886-18.407l24.703 14.09v2.457l-24.703-14.09v-2.457zm0-19.065l32.284 18.464v2.46l-32.284-18.466v-2.458zm-.057-6.035l31.875 18.178v2.46l-31.875-18.18v-2.457zm.156 12.223l35.29 20.325v2.46l-35.29-20.325v-2.46zm-.156 6.842l26.232 14.923v2.46l-26.233-14.924v-2.458zm1.888 18.408l24.344 13.833v2.457l-24.345-13.833v-2.458zm-.073 12.092l8.808 5.06v2.457l-8.808-5.06v-2.457z" fill="#DCDDDB"/><path d="M69.407 42.547c1.613.936 2.92 3.312 2.92 5.306 0 1.994-1.307 2.85-2.92 1.917-1.61-.936-2.915-3.312-2.915-5.307 0-1.996 1.306-2.852 2.915-1.916" fill="#E85F21"/><path d="M77.55 47.328c1.61.935 2.917 3.31 2.917 5.305 0 1.995-1.306 2.854-2.917 1.916-1.61-.937-2.916-3.31-2.916-5.306s1.305-2.855 2.916-1.916" fill="#2EBCE3"/><path d="M61.528 51.05c-.134-.075-.178-.246-.1-.38.076-.134.248-.18.38-.102l79.76 46.35c.134.077.18.25.102.383-.08.134-.25.18-.385.102l-79.757-46.35" fill="#B3B4B4"/><path d="M142.08 97.268c-.133.077-.306.03-.38-.1-.08-.136-.033-.307.1-.384l4.195-2.42c.132-.078.304-.03.38.1.08.134.032.307-.1.383l-4.194 2.42" fill="#B3B4B4"/><path d="M85.7 52.376c1.613.934 2.92 3.312 2.92 5.306 0 1.995-1.307 2.852-2.92 1.915-1.61-.936-2.914-3.312-2.914-5.306 0-1.994 1.305-2.852 2.915-1.914" fill="#F4B728"/><path fill="#DCDDDB" d="M67.52 64.115l16.703 9.424v2.455L67.52 66.573v-2.458"/><path d="M87.583 81.524L57.39 63.906c-1.184-.69-2.353-1.065-3.466-1.155-1.277-.1-2.464.17-3.51.774-.052.032-.103.065-.152.1l-4.87 3.005c-1.325.59-2.4 1.653-3.128 3.11-.664 1.335-1.042 3.01-1.042 4.956v55.54l4.5.237V74.696c0-1.232.203-2.226.566-2.95.255-.514.574-.86.93-1.027.13-.043.258-.097.382-.165.128-.07.247-.152.355-.244l4.66-2.875.048-.027c.25-.144.556-.205.908-.176.46.035.987.217 1.572.558l30.19 17.616c1.606.935 3.11 2.746 4.237 4.912 1.153 2.215 1.87 4.738 1.87 7.035v35.52l4.496.235V97.354c0-3.025-.914-6.29-2.38-9.106-1.493-2.872-3.607-5.344-5.973-6.724" fill="#B3B4B4"/><path d="M86.458 83.466L56.68 65.856c-1.8-1.05-3.458-1.117-4.726-.38l-5.03 3.103 2.077 3.814v58.252l44.686 2.343V97.353c0-5.323-3.252-11.573-7.228-13.888" fill="#F6F6F6"/><path d="M86.597 83.223L56.824 65.615c-.923-.537-1.812-.83-2.637-.895-.872-.07-1.677.108-2.372.512l-.007.005-5.03 3.104-.223.14.126.232 2.042 3.75v58.17l.562.028V72.394l-.034-.135-1.952-3.583 4.797-2.96c.597-.346 1.29-.5 2.047-.44.745.06 1.552.328 2.4.822l29.776 17.607c1.94 1.13 3.71 3.23 4.995 5.703 1.29 2.48 2.092 5.328 2.092 7.944v35.62l.562.03v-35.65c0-2.706-.825-5.647-2.155-8.202-1.333-2.56-3.18-4.743-5.215-5.93" fill="#B3B4B4"/><path d="M80.892 86.843L50.93 69.126c-3.974-2.313-7.23.148-7.23 5.47v55.77l44.422 2.33v-31.964c0-5.326-3.257-11.576-7.23-13.89" fill="#FFF"/><path d="M81.032 86.6L51.07 68.885c-1.06-.618-2.074-.908-3-.908-.765 0-1.47.197-2.085.574-.612.377-1.137.926-1.55 1.634-.645 1.107-1.015 2.602-1.015 4.41v55.76l.56.028V74.595c0-1.708.344-3.11.94-4.13.365-.626.823-1.11 1.357-1.436.528-.324 1.132-.492 1.793-.492.83 0 1.75.266 2.72.83L80.75 87.087c1.94 1.128 3.71 3.23 4.996 5.704 1.29 2.48 2.092 5.326 2.092 7.942v31.95l.56.03v-31.98c0-2.706-.825-5.647-2.154-8.2-1.333-2.562-3.178-4.746-5.214-5.93" fill="#B3B4B4"/><path d="M42.87 82.715c-.135-.075-.307-.03-.384.1-.077.138-.032.308.102.385l45.393 26.587c.135.077.305.032.382-.1.077-.135.033-.306-.1-.383L42.87 82.714" fill="#B3B4B4"/><path d="M87.98 109.304c-.135.075-.18.248-.103.38.078.135.25.18.384.103l5.115-2.953c.135-.077.18-.25.102-.383-.077-.13-.25-.178-.383-.1l-5.113 2.954M49.494 75.123l4.708 2.715c.31.18.563.647.563 1.037 0 .392-.254.566-.563.388l-4.708-2.718c-.31-.18-.564-.646-.564-1.037 0-.39.254-.565.564-.385zm0 4.907l4.708 2.717c.31.178.563.645.563 1.037 0 .39-.254.565-.563.385l-4.708-2.718c-.31-.18-.564-.645-.564-1.037 0-.39.254-.564.564-.385zm0-2.454l4.708 2.717c.31.18.563.645.563 1.037 0 .39-.254.564-.563.386L49.494 79c-.31-.18-.564-.646-.564-1.038 0-.39.254-.566.564-.386zM78.04 92.06l1.815 3.332 1.812-1.24c.238-.164.63.062.868.5.238.44.238.934 0 1.097l-1.814 1.24 1.815 3.33c.238.44.238.933 0 1.098-.24.163-.63-.062-.868-.502l-1.812-3.332-1.814 1.24c-.237.163-.628-.06-.867-.5-.24-.44-.24-.933 0-1.097l1.812-1.24-1.812-3.332c-.24-.44-.24-.933 0-1.096.24-.164.63.06.868.5M104.11 116.223c-.135.078-.307.032-.384-.102-.078-.134-.03-.305.102-.382l4.195-2.42c.134-.077.304-.033.382.1.076.135.03.305-.1.384l-4.195 2.42" fill="#B3B4B4"/><path fill="#D1822B" d="M153.04 117.942h-51.567v12.555l7.906 14.635 11.95 2.448 31.71-18.303v-11.335"/><path fill="#B83302" d="M90.62 118.267H39.05v12.554l31.303 17.793 15.99-16.544 4.276-2.47v-11.333"/><path fill="#0086B3" d="M121.86 136.14H70.29v12.58l24.515 13.874 22.777-12.626 4.277-2.468v-11.36"/><path d="M132.094 104.226l19.176 10.91c2.657 1.512 2.304 4.188-.788 5.947l-17.6 10.013c-3.09 1.76-7.794 1.96-10.453.45l-19.177-10.912c-2.658-1.512-2.303-4.187.79-5.947l17.6-10.014c3.09-1.758 7.794-1.96 10.45-.447" fill="#F6BE25"/><path d="M69.672 104.55l19.175 10.91c2.658 1.512 2.304 4.19-.787 5.947l-17.6 10.013c-3.092 1.76-7.795 1.962-10.453.45L40.83 120.956c-2.657-1.51-2.302-4.187.79-5.945l17.6-10.015c3.09-1.758 7.793-1.96 10.452-.448" fill="#E85F21"/><path d="M100.9 122.636l19.175 10.91c2.657 1.513 2.304 4.19-.787 5.948l-17.6 10.013c-3.092 1.76-7.795 1.96-10.452.45l-19.176-10.91c-2.66-1.514-2.304-4.19.787-5.948l17.6-10.015c3.092-1.76 7.795-1.96 10.452-.45" fill="#3EC9F0"/><path d="M153.04 128.12c.697.4.733 1.082-.012 1.48L94.99 163.1c-.1.057-.213.048-.297-.01l-65.107-36.993c-.134-.077-.178-.247-.102-.38.025-.044.06-.08.102-.104l9.464-5.392v.64l-8.764 4.995 64.565 36.68 58.19-33.59v-.825M91.73 87.638l-.002-19.31h.565v19.31h-.563" fill="#B3B4B4"/><path d="M60.767 166.875l-9.306-5.406-3.06 2.167 2.14 4.648 3.27 10.043 2.642 3.28c3.774-2.253 4.23-2.757 4.315-6v-8.733" fill="#EBECEB"/><path d="M60.345 167.118l-8.863-5.15-2.554 1.81 1.975 4.293 3.246 10.004 2.4 2.983c1.643-.985 2.585-1.618 3.104-2.328.53-.723.65-1.596.69-3.122v-8.49zm-8.673-6.012l9.28 5.39c.14.07.237.213.237.38v8.732h-.003v.01c-.046 1.713-.194 2.708-.854 3.61-.637.87-1.72 1.58-3.647 2.73-.178.12-.423.083-.56-.09l-2.64-3.276-.017-.02-3.273-10.044h.002c-.018-.023-.032-.047-.043-.07l-2.13-4.63c-.095-.182-.043-.412.13-.535l3.06-2.167c.13-.09.306-.105.455-.02z" fill="#B3B4B4"/><path d="M57.708 168.774l-9.306-5.137v9.864c0 7.864 9.306 11.506 9.306 5.338v-10.064" fill="#F6F6F6"/><path d="M57.285 169.022l-8.462-4.67v9.15c0 3.514 1.942 6.14 4.005 7.333.6.346 1.21.57 1.78.654.54.08 1.043.03 1.457-.156.73-.334 1.22-1.138 1.22-2.497v-9.815zm-8.682-5.754l9.283 5.124c.143.067.243.214.243.382v10.063c0 1.74-.69 2.796-1.718 3.264-.565.257-1.227.325-1.925.222-.672-.1-1.385-.358-2.08-.762-2.28-1.317-4.427-4.206-4.427-8.06v-9.865c0-.07.02-.138.054-.203.11-.2.365-.275.57-.164z" fill="#B3B4B4"/><path d="M140.172 161.733l6.885 5.513-6.885 13.46c-1.795 3.514-4.358 1.414-2.58-2.065l4.305-8.416-4.304-3.447c-1.804-1.445.72-6.534 2.58-5.044M125.73 191.47l6.734-29.433c.846-3.69 4.264-3.91 3.43-.262l-6.736 29.433c-.843 3.685-4.255 3.873-3.428.263M114.418 186.085l6.885-13.46c1.72-3.367 4.39-1.472 2.58 2.065l-4.306 8.416 4.305 3.45c2.008 1.605-.6 6.628-2.58 5.04l-6.884-5.51" fill="#C8C8C8"/><path d="M67.253 120.85c-.767.33-3.743 1.857-4.203 1.928-.437-.022-3.907-.85-4.447-1.073l-1.887-2.465 2.07-1.467-3.462-1.967-4.427 3.003 3.98 4.907.114.072 8.72 2.348 10.537-5.007-11.068-6.334 2.563-1.78c3.985 2.272 7.66 4.365 11.65 6.634l3.548-1.69-15.67-8.925-8.55 5.805 10.533 6.01" fill="#FFFFFE"/><path d="M94.435 137.23l3.288 1.87-3.887 1.848c-.468-.08-1.524-.45-2.03-.602l-1.516-.46c-.443-.137-.322-.153-.334-.18-.332-.176-.81-.79-1.044-1.044-.176-.187-.322-.344-.492-.528-.09-.097-.16-.176-.244-.264-.026-.028-.107-.106-.125-.13l-.072-.183 1.39-1.142-3.48-2.006-4.05 2.79 4.39 4.504c.38.253 5.064 1.69 6.17 2.03.677.208 1.404.473 2.09.65l10.798-5.078-7.14-4.063 10.086 2.686 3.918-1.844-7.838-4.474-7.877-4.483-3.227 2.25 7.44 4.234-9.88-2.57-3.264 2.243 6.93 3.944" fill="#FDFEFE"/><path d="M126.147 113.745l2.4 1.325c.05.028.094.07.124.124.085.153.03.345-.123.43l-8.162 4.5c-1.25.69-2.51 1.028-3.756 1.032-1.272.005-2.524-.337-3.734-1.004-2.118-1.17-2.473-2.182-1.982-3.095.448-.833 1.647-1.493 2.783-2.12.09-.05.204-.053.303 0l2.24 1.236c.05.027.095.07.125.123.084.153.028.347-.125.43-.867.48-1.477.845-1.695 1.146-.114.16-.003.33.415.56.556.307 1.028.374 1.453.312.44-.064.855-.27 1.268-.497l8.162-4.502c.092-.05.206-.054.305 0zm-5.582 8.05c.325-.59.935-1.046 1.5-1.358.09-.05.206-.053.305 0l2.303 1.27c.05.03.093.07.122.12.087.15.035.343-.115.43-.19.11-.41.272-.517.466-.038.07-.06.142-.06.215 0 .078.023.17.08.27.145.248.47.537 1.066.866.544.3 1.182.58 1.822.705.61.117 1.228.092 1.763-.202.252-.14.3-.277.227-.423-.134-.266-.493-.6-.925-.986l-.96-.852c-.622-.553-1.234-1.097-1.554-1.674-.494-.894-.336-1.79 1.34-2.714.79-.437 2.188-.933 3.995-.823 1.246.077 2.69.44 4.262 1.31 1.126.62 1.784 1.24 2.115 1.827.203.355.286.7.28 1.03-.004.33-.1.64-.254.92-.296.538-.818.977-1.345 1.277-.096.067-.224.077-.33.018l-2.306-1.27c-.04-.024-.077-.055-.106-.096-.098-.14-.065-.338.076-.438.182-.13.48-.35.512-.595.034-.264-.204-.626-1.106-1.124-.48-.265-1.108-.504-1.733-.567-.473-.05-.944.003-1.34.22-.278.154-.345.273-.317.362.044.144.223.31.373.446l2.132 1.942c.637.578 1.172 1.188 1.276 1.84.112.697-.243 1.386-1.416 2.033-1.358.75-2.766.954-4.053.888-2.115-.107-3.894-.954-4.542-1.31-1.403-.775-2.182-1.5-2.545-2.16-.19-.343-.27-.673-.266-.983v-.007c.003-.318.093-.61.238-.875z" fill="#FFFFFE"/></g></svg>